<svg xmlns="http://www.w3.org/2000/svg" viewBox="0 0 24 24" width="32" height="32" fill="none" stroke="#b5563a" stroke-width="1.6" stroke-linecap="round" stroke-linejoin="round" role="img" aria-label="RAG cục bộ">
  <path d="M12.83 2.18a2 2 0 0 0-1.66 0L2.6 6.08a1 1 0 0 0 0 1.83l8.58 3.91a2 2 0 0 0 1.66 0l8.58-3.91a1 1 0 0 0 0-1.83Z"/>
  <path d="M6.08 9.5 2.6 11.09a1 1 0 0 0 0 1.81l8.58 3.92a2 2 0 0 0 1.66 0l8.58-3.92a1 1 0 0 0 0-1.81L17.92 9.5"/>
  <path d="M6.08 14.5 2.6 16.09a1 1 0 0 0 0 1.81l8.58 3.92a2 2 0 0 0 1.66 0l8.58-3.92a1 1 0 0 0 0-1.81l-3.48-1.59"/>
</svg>
